{"title":"The Hobbit: The Battle of the Five Armies (2014) DVDRip H264 AAC","uid":11865658,"size":1723088002,"categoryP":"video","categoryS":"movies","magnet":"?xt=urn:btih:e36adeaf997189bbec6091ef1dc12efee55652d6&amp;dn=The+Hobbit%3A+The+Battle+of+the+Five+Armies+%282014%29+DVDRip+H264+AAC&amp;tr=udp%3A%2F%2Ftracker.openbittorrent.com%3A80&amp;tr=udp%3A%2F%2Fopen.demonii.com%3A1337&amp;tr=udp%3A%2F%2Ftracker.coppersurfer.tk%3A6969&amp;tr=udp%3A%2F%2Fexodus.desync.com%3A6969","seeders":1,"leechers":0,"uploader":"Xanthippus","files":1,"time":1430341454,"description":"Bilbo and Company are forced to engage in a war against an array of combatants and keep the Lonely Mountain from falling into the hands of a rising darkness.\n\n----\n\nVideo\nID                                       : 1\nFormat                                   : AVC\nFormat/Info                              : Advanced Video Codec\nFormat profile                           : Main@L3\nFormat settings, CABAC                   : Yes\nFormat settings, ReFrames                : 5 frames\nCodec ID                                 : avc1\nCodec ID/Info                            : Advanced Video Coding\nDuration                                 : 2h 24mn\nBit rate                                 : 1 452 Kbps\nWidth                                    : 720 pixels\nHeight                                   : 360 pixels\nDisplay aspect ratio                     : 2.40:1\nFrame rate mode                          : Variable\nFrame rate                               : 23.976 fps\nMinimum frame rate                       : 23.974 fps\nMaximum frame rate                       : 23.981 fps\nColor space                              : YUV\nChroma subsampling                       : 4:2:0\nBit depth                                : 8 bits\nScan type                                : Progressive\nBits/(Pixel*Frame)                       : 0.234\nStream size                              : 1.47 GiB (91%)\n\nAudio\nID                                       : 2\nFormat                                   : AAC\nFormat/Info                              : Advanced Audio Codec\nFormat profile                           : LC\nCodec ID                                 : 40\nDuration                                 : 2h 24mn\nBit rate mode                            : Variable\nBit rate                                 : 132 Kbps\nChannel(s)                               : 2 channels\nChannel positions                        : Front: L R\nSampling rate                            : 48.0 KHz\nCompression mode                         : Lossy\nStream size                              : 136 MiB (8%)\n\n----\n &lt;a href=&quot;\nhttp://www.imdb.com/title/tt2310332/&quot; rel=&quot;nofollow&quot; target=&quot;_NEW&quot;&gt;\nhttp://www.imdb.com/title/tt2310332/&lt;/a&gt;","torrent":{"xt":"urn:btih:e36adeaf997189bbec6091ef1dc12efee55652d6","amp;dn":"The+Hobbit%3A+The+Battle+of+the+Five+Armies+%282014%29+DVDRip+H264+AAC","amp;tr":["udp%3A%2F%2Ftracker.openbittorrent.com%3A80","udp%3A%2F%2Fopen.demonii.com%3A1337","udp%3A%2F%2Ftracker.coppersurfer.tk%3A6969","udp%3A%2F%2Fexodus.desync.com%3A6969"],"infoHash":"e36adeaf997189bbec6091ef1dc12efee55652d6","infoHashBuffer":{"type":"Buffer","data":[227,106,222,175,153,113,137,187,236,96,145,239,29,193,46,254,229,86,82,214]},"announce":[],"urlList":[]}}